<svg height='300px' width='300px'  fill="#000000" xmlns="http://www.w3.org/2000/svg" xmlns:xlink="http://www.w3.org/1999/xlink" viewBox="0 0 24 24" version="1.1" x="0px" y="0px"><title>Compare auto</title><desc>Created with Sketch.</desc><g stroke="none" stroke-width="1" fill="none" fill-rule="evenodd"><g><polygon transform="translate(12.000000, 12.000000) scale(1, -1) translate(-12.000000, -12.000000) " points="24 0 0 0 0 24 24 24"></polygon><path d="M18,18 L18,19.3425461 C18,19.7056386 18.2996368,20 18.6692364,20 L21.3307636,20 C21.7003632,20 22,19.7056386 22,19.3425461 L22,12.4732019 C22,11.986978 21.8826844,11.5202874 21.6702219,11.1056572 L21.0643138,10.296221 L22.5783845,9.48024795 C22.9194546,9.2963874 23.0904521,8.70177596 22.9516611,8.1821387 L22.7963465,7.6007117 C22.6992222,7.23692626 22.4713797,7 22.2188147,7 L19.0632911,7 L18.4720531,5.33186402 C18.1890995,4.5335307 17.4339491,4 16.5869551,4 L14.5,4 C14.2238576,4 14,4.22385763 14,4.5 L14,4.5 C14,4.77614237 14.2238576,5 14.5,5 L16.5869551,5 C17.0104521,5 17.3880273,5.26676535 17.5295041,5.66593201 L18.1207422,7.33406799 C18.262219,7.73323465 18.6397941,8 19.0632911,8 L21.8679434,8 L21.9855369,8.44021628 C22.0040013,8.50934749 22.0044794,8.59362626 21.9887414,8.66204617 L20.5898967,9.41592082 C19.9906426,9.7388748 19.8822069,10.5531799 20.376066,11.0216966 C20.7726105,11.3978924 21,11.9211532 21,12.4732019 L21,19 L19,19 L19,18 C19,17.4477153 18.5522847,17 18,17 L14.5,17 C14.2238576,17 14,17.2238576 14,17.5 L14,17.5 C14,17.7761424 14.2238576,18 14.5,18 L18,18 Z M6,18 L6,19.3425461 C6,19.7056386 5.70036318,20 5.33076357,20 L2.66923643,20 C2.29963682,20 2,19.7056386 2,19.3425461 L2,12.4732019 C2,11.9869838 2.11731276,11.5202986 2.32977045,11.1056721 L2.93567214,10.2962343 L1.42161545,9.48024795 C1.08054542,9.2963874 0.909547908,8.70177596 1.04833886,8.1821387 L1.20361149,7.6007117 C1.30077777,7.23692626 1.52857824,7 1.78118533,7 L4.93670886,7 L5.52794693,5.33186402 C5.81090051,4.5335307 6.5660509,4 7.41304489,4 L9.5,4 C9.77614237,4 10,4.22385763 10,4.5 L10,4.5 C10,4.77614237 9.77614237,5 9.5,5 L7.41304489,5 C6.9895479,5 6.6119727,5.26676535 6.47049591,5.66593201 L5.87925784,7.33406799 C5.73778105,7.73323465 5.36020585,8 4.93670886,8 L2.13202475,8 L2.01447142,8.44018496 C1.99599921,8.50934543 1.99552061,8.59362754 2.01125906,8.66204799 L3.41009872,9.41593919 C4.00934302,9.73889615 4.11777551,10.5531906 3.62392462,11.0217055 C3.22738582,11.3979007 3,11.9211576 3,12.4732019 L3,19 L5,19 L5,18 C5,17.4477153 5.44771525,17 6,17 L9.5,17 C9.77614237,17 10,17.2238576 10,17.5 L10,17.5 C10,17.7761424 9.77614237,18 9.5,18 L6,18 Z" fill="#000000" fill-rule="nonzero"></path><path d="M7.3843045,13.2693065 C7.65993836,13.3033258 7.88888889,13.5153374 7.88888889,13.7919437 L7.88888889,14.1948833 C7.88888889,14.2735057 7.82349853,14.3362524 7.74470988,14.3332284 L5.5765475,14.2525061 C5.25979186,14.2405784 5,13.9719519 5,13.6551945 L5,13.2091637 C5,13.0903902 5.09808554,12.9869043 5.21614211,13.001352 L7.3843045,13.2693065 Z M16.6156955,13.2693065 L18.7838579,13.001352 C18.9019145,12.9869043 19,13.0903902 19,13.2091637 L19,13.6551945 C19,13.9719519 18.7402081,14.2405784 18.4234525,14.2525061 L16.2552901,14.3332284 C16.1765015,14.3362524 16.1111111,14.2735057 16.1111111,14.1948833 L16.1111111,13.7919437 C16.1111111,13.5153374 16.3400616,13.3033258 16.6156955,13.2693065 Z" fill="#000000"></path><rect fill="#000000" x="11.499988" y="2" width="1" height="19" rx="0.5"></rect></g></g></svg>